<svg width="23" height="35" xmlns="http://www.w3.org/2000/svg"><g fill="none" fill-rule="evenodd"><path d="M7.183 34.28c3.136-.9 5.268-3.059 4.762-4.822-.506-1.764-3.458-2.465-6.593-1.566-3.136.9-5.268 3.058-4.762 4.822.07.244-.748 1.084-.59 1.286.982 1.257 4.482 1.054 7.183.28z" fill="#FFF"/><path d="M11.5 29.5v-28" stroke="#FFF" stroke-width="2" stroke-linecap="square"/><path d="M12 .5c.92 1.635 2.09 3.408 3 5 2 3.5 3.045 3.565 4 5.5.863 1.749 2.469 3.372 3 5 .872 2.674-.46 7.007-4 13 1.946-5.08 2.446-8.914 1.5-11.5-.946-2.586-3.446-5.753-7.5-9.5" fill="#FFF"/></g></svg>