<?xml version="1.0" encoding="UTF-8"?>
<svg width="1337px" height="356px" viewBox="0 0 1337 356" version="1.1" xmlns="http://www.w3.org/2000/svg" xmlns:xlink="http://www.w3.org/1999/xlink">
    <!-- Generator: Sketch 48.2 (47327) - http://www.bohemiancoding.com/sketch -->
    <title>guitar</title>
    <desc>Created with Sketch.</desc>
    <defs>
        <filter x="-4.6%" y="-24.2%" width="117.3%" height="196.7%" filterUnits="objectBoundingBox" id="filter-1">
            <feOffset dx="47" dy="81" in="SourceAlpha" result="shadowOffsetOuter1"></feOffset>
            <feGaussianBlur stdDeviation="17.5" in="shadowOffsetOuter1" result="shadowBlurOuter1"></feGaussianBlur>
            <feColorMatrix values="0 0 0 0 0   0 0 0 0 0   0 0 0 0 0  0 0 0 0.5 0" type="matrix" in="shadowBlurOuter1" result="shadowMatrixOuter1"></feColorMatrix>
            <feMerge>
                <feMergeNode in="shadowMatrixOuter1"></feMergeNode>
                <feMergeNode in="SourceGraphic"></feMergeNode>
            </feMerge>
        </filter>
        <linearGradient x1="50%" y1="1.39840689%" x2="50%" y2="96.7813297%" id="linearGradient-2">
            <stop stop-color="#5A4112" offset="0%"></stop>
            <stop stop-color="#815209" offset="49.9043367%"></stop>
            <stop stop-color="#5A4112" offset="100%"></stop>
        </linearGradient>
        <polygon id="path-3" points="52 10 1252 0 1252 240 52 226.5"></polygon>
        <rect id="path-4" x="0" y="7" width="53" height="221" rx="5"></rect>
        <rect id="path-5" x="0" y="0" width="8" height="221" rx="4"></rect>
        <rect id="path-6" x="0" y="0" width="8" height="221" rx="4"></rect>
        <rect id="path-7" x="0" y="0" width="8" height="221" rx="4"></rect>
        <rect id="path-8" x="0" y="0" width="8" height="221" rx="4"></rect>
        <rect id="path-9" x="0" y="0" width="8" height="221" rx="4"></rect>
        <rect id="path-10" x="0" y="0" width="8" height="221" rx="4"></rect>
        <rect id="path-11" x="0" y="0" width="8" height="221" rx="4"></rect>
        <rect id="path-12" x="0" y="0" width="8" height="221" rx="4"></rect>
        <rect id="path-13" x="0" y="0" width="8" height="221" rx="4"></rect>
        <rect id="path-14" x="0" y="0" width="8" height="221" rx="4"></rect>
        <rect id="path-15" x="0" y="0" width="8" height="221" rx="4"></rect>
        <rect id="path-16" x="0" y="0" width="8" height="232" rx="4"></rect>
        <rect id="path-17" x="0" y="0" width="8" height="229" rx="4"></rect>
        <rect id="path-18" x="0" y="0" width="8" height="229" rx="4"></rect>
        <rect id="path-19" x="0" y="0" width="8" height="232" rx="4"></rect>
        <rect id="path-20" x="0" y="0" width="8" height="232" rx="4"></rect>
        <rect id="path-21" x="0" y="0" width="8" height="234" rx="4"></rect>
        <rect id="path-22" x="0" y="0" width="8" height="237" rx="4"></rect>
        <rect id="path-23" x="0" y="0" width="8" height="238" rx="4"></rect>
        <filter x="-0.9%" y="-6.6%" width="103.0%" height="117.2%" filterUnits="objectBoundingBox" id="filter-24">
            <feOffset dx="7" dy="4" in="SourceAlpha" result="shadowOffsetOuter1"></feOffset>
            <feGaussianBlur stdDeviation="3.5" in="shadowOffsetOuter1" result="shadowBlurOuter1"></feGaussianBlur>
            <feColorMatrix values="0 0 0 0 0   0 0 0 0 0   0 0 0 0 0  0 0 0 0.5 0" type="matrix" in="shadowBlurOuter1" result="shadowMatrixOuter1"></feColorMatrix>
            <feMerge>
                <feMergeNode in="shadowMatrixOuter1"></feMergeNode>
                <feMergeNode in="SourceGraphic"></feMergeNode>
            </feMerge>
        </filter>
    </defs>
    <g id="Desktop-HD" stroke="none" stroke-width="1" fill="none" fill-rule="evenodd" transform="translate(-96.000000, -154.000000)">
        <g id="guitar" filter="url(#filter-1)" transform="translate(96.000000, 154.000000)">
            <g id="fretboard">
                <use fill="url(#linearGradient-2)" fill-rule="evenodd" xlink:href="#path-3"></use>
                <path stroke="#452810" stroke-width="2" d="M53,10.9917014 L53,225.511187 L1251,238.988687 L1251,1.00836805 L53,10.9917014 Z"></path>
            </g>
            <g id="Rectangle-2">
                <use fill="#D8D8D8" fill-rule="evenodd" xlink:href="#path-4"></use>
                <rect stroke="#979797" stroke-width="1" x="0.5" y="7.5" width="52" height="220" rx="5"></rect>
            </g>
            <g id="frets" transform="translate(108.000000, 0.000000)">
                <g id="fret" transform="translate(0.000000, 8.000000)">
                    <g id="Rectangle-2">
                        <use fill="#A6A6A6" fill-rule="evenodd" xlink:href="#path-5"></use>
                        <rect stroke="#979797" stroke-width="1" x="0.5" y="0.5" width="7" height="220" rx="3.5"></rect>
                    </g>
                </g>
                <g id="fret" transform="translate(65.000000, 7.000000)">
                    <g id="Rectangle-2">
                        <use fill="#A6A6A6" fill-rule="evenodd" xlink:href="#path-6"></use>
                        <rect stroke="#979797" stroke-width="1" x="0.5" y="0.5" width="7" height="220" rx="3.5"></rect>
                    </g>
                </g>
                <g id="fret" transform="translate(129.000000, 7.000000)">
                    <g id="Rectangle-2">
                        <use fill="#A6A6A6" fill-rule="evenodd" xlink:href="#path-7"></use>
                        <rect stroke="#979797" stroke-width="1" x="0.5" y="0.5" width="7" height="220" rx="3.5"></rect>
                    </g>
                </g>
                <g id="fret" transform="translate(194.000000, 8.000000)">
                    <g id="Rectangle-2">
                        <use fill="#A6A6A6" fill-rule="evenodd" xlink:href="#path-8"></use>
                        <rect stroke="#979797" stroke-width="1" x="0.5" y="0.5" width="7" height="220" rx="3.5"></rect>
                    </g>
                </g>
                <g id="fret" transform="translate(257.000000, 8.000000)">
                    <g id="Rectangle-2">
                        <use fill="#A6A6A6" fill-rule="evenodd" xlink:href="#path-9"></use>
                        <rect stroke="#979797" stroke-width="1" x="0.5" y="0.5" width="7" height="220" rx="3.5"></rect>
                    </g>
                </g>
                <g id="fret" transform="translate(318.000000, 5.000000)">
                    <g id="Rectangle-2">
                        <use fill="#A6A6A6" fill-rule="evenodd" xlink:href="#path-10"></use>
                        <rect stroke="#979797" stroke-width="1" x="0.5" y="0.5" width="7" height="220" rx="3.5"></rect>
                    </g>
                </g>
                <g id="fret" transform="translate(381.000000, 7.000000)">
                    <g id="Rectangle-2">
                        <use fill="#A6A6A6" fill-rule="evenodd" xlink:href="#path-11"></use>
                        <rect stroke="#979797" stroke-width="1" x="0.5" y="0.5" width="7" height="220" rx="3.5"></rect>
                    </g>
                </g>
                <g id="fret" transform="translate(442.000000, 7.000000)">
                    <g id="Rectangle-2">
                        <use fill="#A6A6A6" fill-rule="evenodd" xlink:href="#path-12"></use>
                        <rect stroke="#979797" stroke-width="1" x="0.5" y="0.5" width="7" height="220" rx="3.5"></rect>
                    </g>
                </g>
                <g id="fret" transform="translate(502.000000, 7.000000)">
                    <g id="Rectangle-2">
                        <use fill="#A6A6A6" fill-rule="evenodd" xlink:href="#path-13"></use>
                        <rect stroke="#979797" stroke-width="1" x="0.5" y="0.5" width="7" height="220" rx="3.5"></rect>
                    </g>
                </g>
                <g id="fret" transform="translate(562.000000, 8.000000)">
                    <g id="Rectangle-2">
                        <use fill="#A6A6A6" fill-rule="evenodd" xlink:href="#path-14"></use>
                        <rect stroke="#979797" stroke-width="1" x="0.5" y="0.5" width="7" height="220" rx="3.5"></rect>
                    </g>
                </g>
                <g id="fret" transform="translate(621.000000, 9.000000)">
                    <g id="Rectangle-2">
                        <use fill="#A6A6A6" fill-rule="evenodd" xlink:href="#path-15"></use>
                        <rect stroke="#979797" stroke-width="1" x="0.5" y="0.5" width="7" height="220" rx="3.5"></rect>
                    </g>
                </g>
                <g id="fret" transform="translate(683.000000, 3.000000)">
                    <g id="Rectangle-2">
                        <use fill="#A6A6A6" fill-rule="evenodd" xlink:href="#path-16"></use>
                        <rect stroke="#979797" stroke-width="1" x="0.5" y="0.5" width="7" height="231" rx="3.5"></rect>
                    </g>
                </g>
                <g id="fret" transform="translate(747.000000, 6.000000)">
                    <g id="Rectangle-2">
                        <use fill="#A6A6A6" fill-rule="evenodd" xlink:href="#path-17"></use>
                        <rect stroke="#979797" stroke-width="1" x="0.5" y="0.5" width="7" height="228" rx="3.5"></rect>
                    </g>
                </g>
                <g id="fret" transform="translate(802.000000, 5.000000)">
                    <g id="Rectangle-2">
                        <use fill="#A6A6A6" fill-rule="evenodd" xlink:href="#path-18"></use>
                        <rect stroke="#979797" stroke-width="1" x="0.5" y="0.5" width="7" height="228" rx="3.5"></rect>
                    </g>
                </g>
                <g id="fret" transform="translate(864.000000, 4.000000)">
                    <g id="Rectangle-2">
                        <use fill="#A6A6A6" fill-rule="evenodd" xlink:href="#path-19"></use>
                        <rect stroke="#979797" stroke-width="1" x="0.5" y="0.5" width="7" height="231" rx="3.5"></rect>
                    </g>
                </g>
                <g id="fret" transform="translate(918.000000, 4.000000)">
                    <g id="Rectangle-2">
                        <use fill="#A6A6A6" fill-rule="evenodd" xlink:href="#path-20"></use>
                        <rect stroke="#979797" stroke-width="1" x="0.5" y="0.5" width="7" height="231" rx="3.5"></rect>
                    </g>
                </g>
                <g id="fret" transform="translate(972.000000, 3.000000)">
                    <g id="Rectangle-2">
                        <use fill="#A6A6A6" fill-rule="evenodd" xlink:href="#path-21"></use>
                        <rect stroke="#979797" stroke-width="1" x="0.5" y="0.5" width="7" height="233" rx="3.5"></rect>
                    </g>
                </g>
                <g id="fret" transform="translate(1026.000000, 1.000000)">
                    <g id="Rectangle-2">
                        <use fill="#A6A6A6" fill-rule="evenodd" xlink:href="#path-22"></use>
                        <rect stroke="#979797" stroke-width="1" x="0.5" y="0.5" width="7" height="236" rx="3.5"></rect>
                    </g>
                </g>
                <g id="fret" transform="translate(1073.000000, 0.000000)">
                    <g id="Rectangle-2">
                        <use fill="#A6A6A6" fill-rule="evenodd" xlink:href="#path-23"></use>
                        <rect stroke="#979797" stroke-width="1" x="0.5" y="0.5" width="7" height="237" rx="3.5"></rect>
                    </g>
                </g>
                <g id="dots" transform="translate(91.000000, 59.000000)" fill="#F3F3F3" stroke="#D9D9D9">
                    <g id="dot" transform="translate(0.000000, 48.000000)">
                        <circle id="Oval" cx="10" cy="10" r="10"></circle>
                    </g>
                    <g id="dot" transform="translate(129.000000, 48.000000)">
                        <circle id="Oval" cx="10" cy="10" r="10"></circle>
                    </g>
                    <g id="dot" transform="translate(254.000000, 48.000000)">
                        <circle id="Oval" cx="10" cy="10" r="10"></circle>
                    </g>
                    <g id="dot" transform="translate(379.000000, 48.000000)">
                        <circle id="Oval" cx="10" cy="10" r="10"></circle>
                    </g>
                    <g id="dot" transform="translate(555.000000, 0.000000)">
                        <circle id="Oval" cx="10" cy="10" r="10"></circle>
                    </g>
                    <g id="dot" transform="translate(555.000000, 108.000000)">
                        <circle id="Oval" cx="10" cy="10" r="10"></circle>
                    </g>
                    <g id="dot" transform="translate(737.000000, 51.000000)">
                        <circle id="Oval" cx="10" cy="10" r="10"></circle>
                    </g>
                    <g id="dot" transform="translate(850.000000, 51.000000)">
                        <circle id="Oval" cx="10" cy="10" r="10"></circle>
                    </g>
                    <g id="dot" transform="translate(953.000000, 50.000000)">
                        <circle id="Oval" cx="10" cy="10" r="10"></circle>
                    </g>
                </g>
            </g>
            <g id="strings" filter="url(#filter-24)" transform="translate(52.000000, 20.000000)" stroke="#E2E2E2" stroke-linecap="square" stroke-width="5">
                <g id="string">
                    <path d="M0.491365132,7.5 L1194.50863,0.5" id="Line"></path>
                </g>
                <g id="string" transform="translate(2.000000, 36.000000)">
                    <path d="M0.491365132,7.5 L1194.50863,0.5" id="Line"></path>
                </g>
                <g id="string" transform="translate(0.000000, 72.000000)">
                    <path d="M0.493421053,7.5 L1199.50658,0.5" id="Line"></path>
                </g>
                <g id="string" transform="translate(600.000000, 113.000000) rotate(1.000000) translate(-600.000000, -113.000000) translate(0.000000, 109.000000)">
                    <path d="M0.493421053,7.5 L1199.50658,0.5" id="Line"></path>
                </g>
                <g id="string" transform="translate(599.500000, 150.000000) rotate(1.000000) translate(-599.500000, -150.000000) translate(2.000000, 146.000000)">
                    <path d="M0.491365132,7.5 L1194.50863,0.5" id="Line"></path>
                </g>
                <g id="string" transform="translate(601.500000, 183.000000) rotate(1.000000) translate(-601.500000, -183.000000) translate(4.000000, 179.000000)">
                    <path d="M0.491365132,7.5 L1194.50863,0.5" id="Line"></path>
                </g>
            </g>
        </g>
    </g>
</svg>